<svg width="156" height="109" viewBox="0 0 156 109" fill="none" xmlns="http://www.w3.org/2000/svg">
<path d="M26.8846 46.0847C26.8846 44.8496 27.8858 43.8477 29.1214 43.8477C30.3565 43.8477 31.3583 44.8496 31.3583 46.0847V54.6266C31.3583 56.3676 32.0639 57.9441 33.2051 59.084C34.3456 60.2254 35.922 60.9321 37.6632 60.9321H41.9656C43.7066 60.9321 45.2825 60.2256 46.4237 59.084C47.5642 57.9442 48.2703 56.3678 48.2703 54.6266V46.0847C48.2703 44.8496 49.2715 43.8477 50.5074 43.8477C51.7425 43.8477 52.7442 44.8496 52.7442 46.0847V54.6266C52.7442 57.6027 51.5371 60.2983 49.5867 62.2471C47.6361 64.1975 44.9413 65.4042 41.9658 65.4042H37.6634C34.6873 65.4042 31.9923 64.1975 30.0419 62.2471C28.0915 60.2983 26.885 57.6027 26.885 54.6266L26.8846 46.0847ZM119.801 46.0847C119.801 44.8496 120.802 43.8477 122.038 43.8477C123.273 43.8477 124.275 44.8496 124.275 46.0847V63.1689C124.275 64.4041 123.273 65.4058 122.038 65.4058C120.802 65.4058 119.801 64.4041 119.801 63.1689V46.0847ZM91.748 56.8634C90.5128 56.8634 89.5111 55.8617 89.5111 54.6266C89.5111 53.3917 90.5128 52.3898 91.748 52.3898H106.259C106.815 52.3898 107.324 52.1597 107.693 51.7902C108.063 51.4206 108.293 50.9128 108.293 50.3562C108.293 49.7983 108.063 49.2907 107.693 48.9211C107.324 48.5514 106.815 48.3215 106.259 48.3215H89.144C87.9083 48.3215 86.9071 47.3196 86.9071 46.0847C86.9071 44.8496 87.9083 43.8477 89.144 43.8477H106.259C108.05 43.8477 109.678 44.5796 110.857 45.7582C112.035 46.9367 112.766 48.5635 112.766 50.3564C112.766 52.1482 112.035 53.7749 110.857 54.9535C109.678 56.132 108.05 56.8639 106.259 56.8639H102.497C104.793 58.8456 107.366 60.9323 112.034 60.9323C113.269 60.9323 114.271 61.9325 114.271 63.1676C114.271 64.4042 113.269 65.4045 112.034 65.4045C105.551 65.4045 102.298 62.5888 99.3312 60.021C97.4302 58.3764 95.6826 56.8639 93.1732 56.8639L91.748 56.8634ZM66.5205 56.8634C65.2849 56.8634 64.2837 55.8617 64.2837 54.6266C64.2837 53.3917 65.2849 52.3898 66.5205 52.3898H76.9239C77.4811 52.3898 77.989 52.1597 78.3584 51.7902C78.7283 51.4206 78.9578 50.9128 78.9578 50.3562C78.9578 49.7983 78.7283 49.2907 78.3584 48.9211C77.989 48.5514 77.4811 48.3215 76.9239 48.3215H62.0469V60.9321H76.9239C77.4811 60.9321 77.989 60.7021 78.3584 60.3325C78.7283 59.9628 78.9578 59.4538 78.9578 58.8972C78.9578 58.3778 78.7612 57.9013 78.4394 57.5391L78.3584 57.4618C77.989 57.0922 77.4811 56.8636 76.9239 56.8636L66.5205 56.8634ZM57.573 46.1423L57.5722 46.0845C57.5722 44.8494 58.5736 43.8474 59.8093 43.8474H76.9239C78.7157 43.8474 80.343 44.5794 81.5219 45.7579C82.7001 46.9365 83.4319 48.5632 83.4319 50.3562C83.4319 51.989 82.8236 53.4867 81.8234 54.6312C82.8235 55.7741 83.4319 57.2687 83.4319 58.897C83.4319 60.6885 82.7001 62.3169 81.5219 63.4955C80.343 64.674 78.7157 65.4043 76.9239 65.4043H59.8093C58.5736 65.4043 57.5722 64.404 57.5722 63.1675L57.573 63.1111V46.1423ZM0 46.0845C0 44.8494 1.00119 43.8474 2.2363 43.8474C3.47195 43.8474 4.47314 44.8494 4.47314 46.0845V60.9319H23.6219C24.8573 60.9319 25.8587 61.9321 25.8587 63.1672C25.8587 64.4038 24.8573 65.4042 23.6219 65.4042H2.2363C1.00119 65.4042 0 64.4038 0 63.1672V46.0845ZM153.603 43.8474C154.838 43.8474 155.839 44.8494 155.839 46.0845C155.839 47.3194 154.838 48.3213 153.603 48.3213H140.759C139.017 48.3213 137.441 49.0276 136.3 50.1677C135.16 51.3091 134.453 52.8854 134.453 54.6266C134.453 56.3676 135.159 57.9441 136.3 59.084C137.441 60.2254 139.017 60.9321 140.759 60.9321H153.603C154.838 60.9321 155.839 61.9324 155.839 63.1675C155.839 64.404 154.838 65.4043 153.603 65.4043H140.759C137.783 65.4043 135.088 64.1976 133.137 62.2472C131.187 60.2984 129.98 57.6029 129.98 54.6268C129.98 51.6509 131.187 48.9554 133.137 47.005C135.088 45.0546 137.783 43.8478 140.759 43.8478L153.603 43.8474ZM119.8 89.199C119.8 87.9624 120.802 86.9622 122.038 86.9622C123.273 86.9622 124.274 87.9624 124.274 89.199V106.282C124.274 107.517 123.273 108.519 122.038 108.519C120.802 108.519 119.8 107.517 119.8 106.282V89.199ZM119.8 2.97131C119.8 1.73639 120.802 0.734375 122.038 0.734375C123.273 0.734375 124.274 1.73639 124.274 2.97131V20.0542C124.274 21.2908 123.273 22.2911 122.038 22.2911C120.802 22.2911 119.8 21.2908 119.8 20.0542V2.97131Z" fill="#FFCC29"/>
</svg>
