<svg width="156" height="23" viewBox="0 0 156 23" fill="none" xmlns="http://www.w3.org/2000/svg">
<path d="M26.8846 3.03361C26.8846 1.79981 27.8861 0.799011 29.1216 0.799011C30.3569 0.799011 31.3583 1.79981 31.3583 3.03361V11.5661C31.3583 13.3054 32.0645 14.8802 33.2047 16.0194C34.346 17.1588 35.9222 17.864 37.6631 17.864H41.9651C43.7062 17.864 45.2829 17.1588 46.4235 16.0194C47.5643 14.88 48.2701 13.3052 48.2701 11.5661V3.03361C48.2701 1.79981 49.2718 0.799011 50.5071 0.799011C51.7421 0.799011 52.7437 1.79981 52.7437 3.03361V11.5661C52.7437 14.539 51.5369 17.2308 49.5867 19.1789C47.636 21.1275 44.9413 22.3327 41.9651 22.3327H37.6631C34.687 22.3327 31.9923 21.1275 30.042 19.1789C28.0913 17.2306 26.8846 14.539 26.8846 11.5661V3.03361ZM119.801 3.03379C119.801 1.79999 120.803 0.799195 122.038 0.799195C123.273 0.799195 124.275 1.79999 124.275 3.03379V20.0986C124.275 21.3324 123.273 22.3332 122.038 22.3332C120.803 22.3332 119.801 21.3324 119.801 20.0986V3.03379ZM91.7484 13.8002C90.5127 13.8002 89.5114 12.7997 89.5114 11.5657C89.5114 10.3319 90.5127 9.33152 91.7484 9.33152H106.259C106.816 9.33152 107.324 9.10217 107.694 8.73295C108.063 8.36354 108.292 7.85608 108.292 7.29986C108.292 6.74346 108.063 6.23564 107.694 5.86678C107.324 5.49719 106.816 5.26821 106.259 5.26821H89.1445C87.9088 5.26821 86.9075 4.26742 86.9075 3.03379C86.9075 1.79999 87.9088 0.799195 89.1445 0.799195H106.259C108.05 0.799195 109.678 1.53013 110.857 2.70728C112.035 3.88407 112.766 5.51002 112.766 7.30005C112.766 9.08989 112.035 10.7162 110.857 11.8928C109.678 13.07 108.05 13.8005 106.259 13.8005H102.498C104.793 15.7801 107.367 17.8644 112.034 17.8644C113.269 17.8644 114.271 18.8648 114.271 20.0986C114.271 21.3326 113.269 22.333 112.034 22.333C105.551 22.333 102.298 19.52 99.3315 16.9551C97.4303 15.3115 95.6828 13.8005 93.1738 13.8005L91.7484 13.8002ZM66.521 13.8002C65.2855 13.8002 64.284 12.7997 64.284 11.5657C64.284 10.3319 65.2855 9.33152 66.521 9.33152H76.9243C77.4815 9.33152 77.9891 9.10217 78.3586 8.73295C78.7284 8.36354 78.9579 7.85608 78.9579 7.29986C78.9579 6.74346 78.7282 6.23564 78.3586 5.86678C77.9889 5.49719 77.4815 5.26821 76.9243 5.26821H62.0474V17.8642H76.9243C77.4815 17.8642 77.9891 17.6349 78.3586 17.2656C78.7284 16.8962 78.9579 16.3886 78.9579 15.8325C78.9579 15.3128 78.7617 14.8369 78.4402 14.4763L78.3586 14.3991C77.9889 14.0299 77.4815 13.8005 76.9243 13.8005L66.521 13.8002ZM57.5734 3.09118L57.5727 3.03343C57.5727 1.79962 58.5742 0.798828 59.8095 0.798828H76.9241C78.7159 0.798828 80.3438 1.52976 81.5218 2.70692C82.6998 3.88371 83.4319 5.50965 83.4319 7.29968C83.4319 8.93131 82.8235 10.4267 81.8233 11.5703C82.8235 12.713 83.4319 14.2057 83.4319 15.8324C83.4319 17.6222 82.6998 19.2485 81.5218 20.4251C80.3436 21.6023 78.7159 22.3328 76.9241 22.3328H59.8095C58.5742 22.3328 57.5727 21.3324 57.5727 20.0984L57.5734 20.0409V3.09118ZM0 3.03343C0 1.79962 1.00168 0.798828 2.23662 0.798828C3.47212 0.798828 4.47362 1.79962 4.47362 3.03343V17.8638H23.6223C24.8576 17.8638 25.8591 18.8643 25.8591 20.0981C25.8591 21.3321 24.8576 22.3325 23.6223 22.3325H2.23662C1.00168 22.3325 0 21.3321 0 20.0981V3.03343ZM153.602 0.798828C154.838 0.798828 155.839 1.79962 155.839 3.03343C155.839 4.26705 154.838 5.26784 153.602 5.26784H140.759C139.018 5.26784 137.441 5.97274 136.3 7.1125C135.16 8.25189 134.454 9.8265 134.454 11.5659C134.454 13.3052 135.16 14.88 136.3 16.0192C137.441 17.1586 139.018 17.8638 140.759 17.8638H153.602C154.838 17.8638 155.839 18.8643 155.839 20.0981C155.839 21.3321 154.838 22.3325 153.602 22.3325H140.759C137.783 22.3325 135.087 21.1273 133.137 19.1787C131.187 17.2304 129.98 14.5388 129.98 11.5659C129.98 8.59307 131.187 5.90106 133.137 3.95264C135.088 2.00403 137.783 0.798828 140.759 0.798828H153.602Z" fill="#FCC900"/>
</svg>
