<svg width="156" height="1187" viewBox="0 0 156 1187" fill="none" xmlns="http://www.w3.org/2000/svg">
<path d="M119.801 1166.92C119.801 1165.69 120.802 1164.69 122.038 1164.69C123.273 1164.69 124.275 1165.69 124.275 1166.92V1184.01C124.275 1185.24 123.273 1186.24 122.038 1186.24C120.802 1186.24 119.801 1185.24 119.801 1184.01V1166.92ZM119.801 1123.81C119.801 1122.57 120.802 1121.57 122.038 1121.57C123.273 1121.57 124.275 1122.57 124.275 1123.81V1140.89C124.275 1142.13 123.273 1143.13 122.038 1143.13C120.802 1143.13 119.801 1142.13 119.801 1140.89V1123.81ZM119.801 1080.69C119.801 1079.46 120.802 1078.46 122.038 1078.46C123.273 1078.46 124.275 1079.46 124.275 1080.69V1097.78C124.275 1099.01 123.273 1100.02 122.038 1100.02C120.802 1100.02 119.801 1099.01 119.801 1097.78V1080.69ZM119.801 1037.58C119.801 1036.35 120.802 1035.34 122.038 1035.34C123.273 1035.34 124.275 1036.35 124.275 1037.58V1054.66C124.275 1055.9 123.273 1056.9 122.038 1056.9C120.802 1056.9 119.801 1055.9 119.801 1054.66V1037.58ZM119.801 994.468C119.801 993.233 120.802 992.231 122.038 992.231C123.273 992.231 124.275 993.233 124.275 994.468V1011.55C124.275 1012.79 123.273 1013.79 122.038 1013.79C120.802 1013.79 119.801 1012.79 119.801 1011.55V994.468ZM119.801 951.355C119.801 950.119 120.802 949.118 122.038 949.118C123.273 949.118 124.275 950.119 124.275 951.355V968.438C124.275 969.673 123.273 970.675 122.038 970.675C120.802 970.675 119.801 969.673 119.801 968.438V951.355ZM119.801 908.24C119.801 907.005 120.802 906.004 122.038 906.004C123.273 906.004 124.275 907.005 124.275 908.24V925.323C124.275 926.558 123.273 927.56 122.038 927.56C120.802 927.56 119.801 926.558 119.801 925.323V908.24ZM119.801 865.127C119.801 863.891 120.802 862.891 122.038 862.891C123.273 862.891 124.275 863.891 124.275 865.127V882.21C124.275 883.445 123.273 884.447 122.038 884.447C120.802 884.447 119.801 883.445 119.801 882.21V865.127ZM119.801 822.013C119.801 820.778 120.802 819.776 122.038 819.776C123.273 819.776 124.275 820.778 124.275 822.013V839.096C124.275 840.332 123.273 841.333 122.038 841.333C120.802 841.333 119.801 840.332 119.801 839.096V822.013ZM119.801 778.9C119.801 777.663 120.802 776.663 122.038 776.663C123.273 776.663 124.275 777.663 124.275 778.9V795.983C124.275 797.218 123.273 798.22 122.038 798.22C120.802 798.22 119.801 797.218 119.801 795.983V778.9ZM119.801 735.786C119.801 734.55 120.802 733.549 122.038 733.549C123.273 733.549 124.275 734.55 124.275 735.786V752.87C124.275 754.105 123.273 755.105 122.038 755.105C120.802 755.105 119.801 754.105 119.801 752.87V735.786ZM119.801 692.672C119.801 691.436 120.802 690.436 122.038 690.436C123.273 690.436 124.275 691.436 124.275 692.672V709.755C124.275 710.99 123.273 711.992 122.038 711.992C120.802 711.992 119.801 710.99 119.801 709.755V692.672ZM119.801 649.558C119.801 648.323 120.802 647.321 122.038 647.321C123.273 647.321 124.275 648.323 124.275 649.558V666.642C124.275 667.877 123.273 668.879 122.038 668.879C120.802 668.879 119.801 667.877 119.801 666.642V649.558ZM119.801 606.445C119.801 605.21 120.802 604.208 122.038 604.208C123.273 604.208 124.275 605.21 124.275 606.445V623.528C124.275 624.763 123.273 625.765 122.038 625.765C120.802 625.765 119.801 624.763 119.801 623.528V606.445ZM119.801 563.33C119.801 562.095 120.802 561.093 122.038 561.093C123.273 561.093 124.275 562.095 124.275 563.33V580.415C124.275 581.65 123.273 582.651 122.038 582.651C120.802 582.651 119.801 581.65 119.801 580.415V563.33ZM119.801 520.217C119.801 518.982 120.802 517.98 122.038 517.98C123.273 517.98 124.275 518.982 124.275 520.217V537.3C124.275 538.535 123.273 539.537 122.038 539.537C120.802 539.537 119.801 538.535 119.801 537.3V520.217ZM119.801 477.103C119.801 475.868 120.802 474.866 122.038 474.866C123.273 474.866 124.275 475.868 124.275 477.103V494.187C124.275 495.422 123.273 496.424 122.038 496.424C120.802 496.424 119.801 495.422 119.801 494.187V477.103ZM119.801 433.99C119.801 432.755 120.802 431.753 122.038 431.753C123.273 431.753 124.275 432.755 124.275 433.99V451.073C124.275 452.309 123.273 453.31 122.038 453.31C120.802 453.31 119.801 452.309 119.801 451.073V433.99ZM119.801 390.875C119.801 389.64 120.802 388.64 122.038 388.64C123.273 388.64 124.275 389.64 124.275 390.875V407.96C124.275 409.195 123.273 410.196 122.038 410.196C120.802 410.196 119.801 409.195 119.801 407.96V390.875ZM119.801 347.762C119.801 346.527 120.802 345.525 122.038 345.525C123.273 345.525 124.275 346.527 124.275 347.762V364.845C124.275 366.082 123.273 367.082 122.038 367.082C120.802 367.082 119.801 366.082 119.801 364.845V347.762ZM119.801 304.648C119.801 303.413 120.802 302.412 122.038 302.412C123.273 302.412 124.275 303.413 124.275 304.648V321.732C124.275 322.967 123.273 323.969 122.038 323.969C120.802 323.969 119.801 322.967 119.801 321.732V304.648ZM119.801 261.535C119.801 260.299 120.802 259.298 122.038 259.298C123.273 259.298 124.275 260.299 124.275 261.535V278.617C124.275 279.854 123.273 280.854 122.038 280.854C120.802 280.854 119.801 279.854 119.801 278.617V261.535ZM26.8846 89.0796C26.8846 87.8445 27.8858 86.8425 29.1214 86.8425C30.3565 86.8425 31.3583 87.8445 31.3583 89.0796V97.6215C31.3583 99.3625 32.0639 100.939 33.2051 102.079C34.3456 103.22 35.922 103.927 37.6632 103.927H41.9656C43.7066 103.927 45.2825 103.22 46.4237 102.079C47.5642 100.939 48.2703 99.3627 48.2703 97.6215V89.0796C48.2703 87.8445 49.2715 86.8425 50.5074 86.8425C51.7425 86.8425 52.7442 87.8445 52.7442 89.0796V97.6215C52.7442 100.598 51.5371 103.293 49.5867 105.242C47.6361 107.192 44.9413 108.399 41.9658 108.399H37.6634C34.6873 108.399 31.9923 107.192 30.0419 105.242C28.0915 103.293 26.885 100.598 26.885 97.6215L26.8846 89.0796ZM119.801 89.0796C119.801 87.8445 120.802 86.8425 122.038 86.8425C123.273 86.8425 124.275 87.8445 124.275 89.0796V106.164C124.275 107.399 123.273 108.401 122.038 108.401C120.802 108.401 119.801 107.399 119.801 106.164V89.0796ZM91.748 99.8583C90.5128 99.8583 89.5111 98.8566 89.5111 97.6215C89.5111 96.3865 90.5128 95.3846 91.748 95.3846H106.259C106.815 95.3846 107.324 95.1546 107.693 94.785C108.063 94.4155 108.293 93.9077 108.293 93.3511C108.293 92.7932 108.063 92.2856 107.693 91.916C107.324 91.5463 106.815 91.3164 106.259 91.3164H89.144C87.9083 91.3164 86.9071 90.3145 86.9071 89.0796C86.9071 87.8445 87.9083 86.8425 89.144 86.8425H106.259C108.05 86.8425 109.678 87.5745 110.857 88.7531C112.035 89.9316 112.766 91.5583 112.766 93.3513C112.766 95.143 112.035 96.7698 110.857 97.9484C109.678 99.1269 108.05 99.8588 106.259 99.8588H102.497C104.793 101.84 107.366 103.927 112.034 103.927C113.269 103.927 114.271 104.927 114.271 106.162C114.271 107.399 113.269 108.399 112.034 108.399C105.551 108.399 102.298 105.584 99.3312 103.016C97.4302 101.371 95.6826 99.8588 93.1732 99.8588L91.748 99.8583ZM66.5205 99.8583C65.2849 99.8583 64.2837 98.8566 64.2837 97.6215C64.2837 96.3865 65.2849 95.3846 66.5205 95.3846H76.9239C77.4811 95.3846 77.989 95.1546 78.3584 94.785C78.7283 94.4155 78.9578 93.9077 78.9578 93.3511C78.9578 92.7932 78.7283 92.2856 78.3584 91.916C77.989 91.5463 77.4811 91.3164 76.9239 91.3164H62.0469V103.927H76.9239C77.4811 103.927 77.989 103.697 78.3584 103.327C78.7283 102.958 78.9578 102.449 78.9578 101.892C78.9578 101.373 78.7612 100.896 78.4394 100.534L78.3584 100.457C77.989 100.087 77.4811 99.8585 76.9239 99.8585L66.5205 99.8583ZM57.573 89.1372L57.5722 89.0793C57.5722 87.8442 58.5736 86.8423 59.8093 86.8423H76.9239C78.7157 86.8423 80.343 87.5743 81.5219 88.7528C82.7001 89.9314 83.4319 91.5581 83.4319 93.3511C83.4319 94.9839 82.8236 96.4816 81.8234 97.6261C82.8235 98.769 83.4319 100.264 83.4319 101.892C83.4319 103.683 82.7001 105.312 81.5219 106.49C80.343 107.669 78.7157 108.399 76.9239 108.399H59.8093C58.5736 108.399 57.5722 107.399 57.5722 106.162L57.573 106.106V89.1372ZM0 89.0793C0 87.8442 1.00119 86.8423 2.2363 86.8423C3.47195 86.8423 4.47314 87.8442 4.47314 89.0793V103.927H23.6219C24.8573 103.927 25.8587 104.927 25.8587 106.162C25.8587 107.399 24.8573 108.399 23.6219 108.399H2.2363C1.00119 108.399 0 107.399 0 106.162V89.0793ZM153.603 86.8423C154.838 86.8423 155.839 87.8442 155.839 89.0793C155.839 90.3143 154.838 91.3162 153.603 91.3162H140.759C139.017 91.3162 137.441 92.0225 136.3 93.1626C135.16 94.304 134.453 95.8803 134.453 97.6215C134.453 99.3625 135.159 100.939 136.3 102.079C137.441 103.22 139.017 103.927 140.759 103.927H153.603C154.838 103.927 155.839 104.927 155.839 106.162C155.839 107.399 154.838 108.399 153.603 108.399H140.759C137.783 108.399 135.088 107.192 133.137 105.242C131.187 103.293 129.98 100.598 129.98 97.6217C129.98 94.6458 131.187 91.9503 133.137 89.9999C135.088 88.0495 137.783 86.8427 140.759 86.8427L153.603 86.8423ZM119.8 132.194C119.8 130.957 120.802 129.957 122.038 129.957C123.273 129.957 124.274 130.957 124.274 132.194V149.277C124.274 150.512 123.273 151.513 122.038 151.513C120.802 151.513 119.8 150.512 119.8 149.277V132.194ZM119.8 45.9662C119.8 44.7313 120.802 43.7292 122.038 43.7292C123.273 43.7292 124.274 44.7313 124.274 45.9662V63.0491C124.274 64.2856 123.273 65.286 122.038 65.286C120.802 65.286 119.8 64.2856 119.8 63.0491V45.9662ZM119.8 2.85309C119.8 1.6167 120.802 0.616272 122.038 0.616272C123.273 0.616272 124.274 1.6167 124.274 2.85309V19.9362C124.274 21.1711 123.273 22.1729 122.038 22.1729C120.802 22.1729 119.8 21.1711 119.8 19.9362V2.85309Z" fill="white"/>
</svg>
