<svg width="157" height="1187" viewBox="0 0 157 1187" fill="none" xmlns="http://www.w3.org/2000/svg">
<path d="M120.628 1166.92C120.628 1165.69 121.629 1164.69 122.865 1164.69C124.1 1164.69 125.101 1165.69 125.101 1166.92V1184.01C125.101 1185.24 124.1 1186.24 122.865 1186.24C121.629 1186.24 120.628 1185.24 120.628 1184.01V1166.92ZM120.628 1123.81C120.628 1122.57 121.629 1121.57 122.865 1121.57C124.1 1121.57 125.101 1122.57 125.101 1123.81V1140.89C125.101 1142.13 124.1 1143.13 122.865 1143.13C121.629 1143.13 120.628 1142.13 120.628 1140.89V1123.81ZM120.628 1080.69C120.628 1079.46 121.629 1078.46 122.865 1078.46C124.1 1078.46 125.101 1079.46 125.101 1080.69V1097.78C125.101 1099.01 124.1 1100.02 122.865 1100.02C121.629 1100.02 120.628 1099.01 120.628 1097.78V1080.69ZM120.628 1037.58C120.628 1036.35 121.629 1035.34 122.865 1035.34C124.1 1035.34 125.101 1036.35 125.101 1037.58V1054.66C125.101 1055.9 124.1 1056.9 122.865 1056.9C121.629 1056.9 120.628 1055.9 120.628 1054.66V1037.58ZM120.628 994.468C120.628 993.233 121.629 992.231 122.865 992.231C124.1 992.231 125.101 993.233 125.101 994.468V1011.55C125.101 1012.79 124.1 1013.79 122.865 1013.79C121.629 1013.79 120.628 1012.79 120.628 1011.55V994.468ZM120.628 951.355C120.628 950.119 121.629 949.118 122.865 949.118C124.1 949.118 125.101 950.119 125.101 951.355V968.438C125.101 969.673 124.1 970.675 122.865 970.675C121.629 970.675 120.628 969.673 120.628 968.438V951.355ZM120.628 908.24C120.628 907.005 121.629 906.004 122.865 906.004C124.1 906.004 125.101 907.005 125.101 908.24V925.323C125.101 926.558 124.1 927.56 122.865 927.56C121.629 927.56 120.628 926.558 120.628 925.323V908.24ZM120.628 865.127C120.628 863.891 121.629 862.891 122.865 862.891C124.1 862.891 125.101 863.891 125.101 865.127V882.21C125.101 883.445 124.1 884.447 122.865 884.447C121.629 884.447 120.628 883.445 120.628 882.21V865.127ZM120.628 822.013C120.628 820.778 121.629 819.776 122.865 819.776C124.1 819.776 125.101 820.778 125.101 822.013V839.096C125.101 840.332 124.1 841.333 122.865 841.333C121.629 841.333 120.628 840.332 120.628 839.096V822.013ZM120.628 778.9C120.628 777.663 121.629 776.663 122.865 776.663C124.1 776.663 125.101 777.663 125.101 778.9V795.983C125.101 797.218 124.1 798.22 122.865 798.22C121.629 798.22 120.628 797.218 120.628 795.983V778.9ZM120.628 735.786C120.628 734.55 121.629 733.549 122.865 733.549C124.1 733.549 125.101 734.55 125.101 735.786V752.87C125.101 754.105 124.1 755.105 122.865 755.105C121.629 755.105 120.628 754.105 120.628 752.87V735.786ZM120.628 692.672C120.628 691.436 121.629 690.436 122.865 690.436C124.1 690.436 125.101 691.436 125.101 692.672V709.755C125.101 710.99 124.1 711.992 122.865 711.992C121.629 711.992 120.628 710.99 120.628 709.755V692.672ZM120.628 649.558C120.628 648.323 121.629 647.321 122.865 647.321C124.1 647.321 125.101 648.323 125.101 649.558V666.642C125.101 667.877 124.1 668.879 122.865 668.879C121.629 668.879 120.628 667.877 120.628 666.642V649.558ZM120.628 606.445C120.628 605.21 121.629 604.208 122.865 604.208C124.1 604.208 125.101 605.21 125.101 606.445V623.528C125.101 624.763 124.1 625.765 122.865 625.765C121.629 625.765 120.628 624.763 120.628 623.528V606.445ZM120.628 563.33C120.628 562.095 121.629 561.093 122.865 561.093C124.1 561.093 125.101 562.095 125.101 563.33V580.415C125.101 581.65 124.1 582.651 122.865 582.651C121.629 582.651 120.628 581.65 120.628 580.415V563.33ZM120.628 520.217C120.628 518.982 121.629 517.98 122.865 517.98C124.1 517.98 125.101 518.982 125.101 520.217V537.3C125.101 538.535 124.1 539.537 122.865 539.537C121.629 539.537 120.628 538.535 120.628 537.3V520.217ZM120.628 477.103C120.628 475.868 121.629 474.866 122.865 474.866C124.1 474.866 125.101 475.868 125.101 477.103V494.187C125.101 495.422 124.1 496.424 122.865 496.424C121.629 496.424 120.628 495.422 120.628 494.187V477.103ZM120.628 433.99C120.628 432.755 121.629 431.753 122.865 431.753C124.1 431.753 125.101 432.755 125.101 433.99V451.073C125.101 452.309 124.1 453.31 122.865 453.31C121.629 453.31 120.628 452.309 120.628 451.073V433.99ZM120.628 390.875C120.628 389.64 121.629 388.64 122.865 388.64C124.1 388.64 125.101 389.64 125.101 390.875V407.96C125.101 409.195 124.1 410.196 122.865 410.196C121.629 410.196 120.628 409.195 120.628 407.96V390.875ZM120.628 347.762C120.628 346.527 121.629 345.525 122.865 345.525C124.1 345.525 125.101 346.527 125.101 347.762V364.845C125.101 366.082 124.1 367.082 122.865 367.082C121.629 367.082 120.628 366.082 120.628 364.845V347.762ZM120.628 304.648C120.628 303.413 121.629 302.412 122.865 302.412C124.1 302.412 125.101 303.413 125.101 304.648V321.732C125.101 322.967 124.1 323.969 122.865 323.969C121.629 323.969 120.628 322.967 120.628 321.732V304.648ZM120.628 261.535C120.628 260.299 121.629 259.298 122.865 259.298C124.1 259.298 125.101 260.299 125.101 261.535V278.617C125.101 279.854 124.1 280.854 122.865 280.854C121.629 280.854 120.628 279.854 120.628 278.617V261.535ZM120.628 218.422C120.628 217.185 121.629 216.185 122.865 216.185C124.1 216.185 125.101 217.185 125.101 218.422V235.505C125.101 236.74 124.1 237.741 122.865 237.741C121.629 237.741 120.628 236.74 120.628 235.505V218.422ZM27.7115 89.0796C27.7115 87.8445 28.7127 86.8425 29.9483 86.8425C31.1835 86.8425 32.1852 87.8445 32.1852 89.0796V97.6215C32.1852 99.3625 32.8908 100.939 34.032 102.079C35.1725 103.22 36.7489 103.927 38.4901 103.927H42.7925C44.5335 103.927 46.1094 103.22 47.2506 102.079C48.3911 100.939 49.0972 99.3627 49.0972 97.6215V89.0796C49.0972 87.8445 50.0984 86.8425 51.3343 86.8425C52.5694 86.8425 53.5711 87.8445 53.5711 89.0796V97.6215C53.5711 100.598 52.364 103.293 50.4136 105.242C48.463 107.192 45.7682 108.399 42.7927 108.399H38.4903C35.5142 108.399 32.8192 107.192 30.8688 105.242C28.9184 103.293 27.7119 100.598 27.7119 97.6215L27.7115 89.0796ZM120.628 89.0796C120.628 87.8445 121.629 86.8425 122.865 86.8425C124.1 86.8425 125.101 87.8445 125.101 89.0796V106.164C125.101 107.399 124.1 108.401 122.865 108.401C121.629 108.401 120.628 107.399 120.628 106.164V89.0796ZM92.5749 99.8583C91.3398 99.8583 90.338 98.8566 90.338 97.6215C90.338 96.3865 91.3398 95.3846 92.5749 95.3846H107.086C107.642 95.3846 108.151 95.1546 108.52 94.785C108.89 94.4155 109.12 93.9077 109.12 93.3511C109.12 92.7932 108.89 92.2856 108.52 91.916C108.151 91.5463 107.642 91.3164 107.086 91.3164H89.9709C88.7352 91.3164 87.734 90.3145 87.734 89.0796C87.734 87.8445 88.7352 86.8425 89.9709 86.8425H107.086C108.877 86.8425 110.505 87.5745 111.684 88.7531C112.862 89.9316 113.593 91.5583 113.593 93.3513C113.593 95.143 112.862 96.7698 111.684 97.9484C110.505 99.1269 108.877 99.8588 107.086 99.8588H103.324C105.62 101.84 108.193 103.927 112.861 103.927C114.096 103.927 115.098 104.927 115.098 106.162C115.098 107.399 114.096 108.399 112.861 108.399C106.378 108.399 103.125 105.584 100.158 103.016C98.2571 101.371 96.5095 99.8588 94.0001 99.8588L92.5749 99.8583ZM67.3475 99.8583C66.1118 99.8583 65.1106 98.8566 65.1106 97.6215C65.1106 96.3865 66.1118 95.3846 67.3475 95.3846H77.7508C78.308 95.3846 78.8159 95.1546 79.1853 94.785C79.5552 94.4155 79.7847 93.9077 79.7847 93.3511C79.7847 92.7932 79.5552 92.2856 79.1853 91.916C78.8159 91.5463 78.308 91.3164 77.7508 91.3164H62.8738V103.927H77.7508C78.308 103.927 78.8159 103.697 79.1853 103.327C79.5552 102.958 79.7847 102.449 79.7847 101.892C79.7847 101.373 79.5881 100.896 79.2663 100.534L79.1853 100.457C78.8159 100.087 78.308 99.8585 77.7508 99.8585L67.3475 99.8583ZM58.3999 89.1372L58.3992 89.0793C58.3992 87.8442 59.4005 86.8423 60.6362 86.8423H77.7508C79.5426 86.8423 81.1699 87.5743 82.3488 88.7528C83.527 89.9314 84.2588 91.5581 84.2588 93.3511C84.2588 94.9839 83.6505 96.4816 82.6503 97.6261C83.6504 98.769 84.2588 100.264 84.2588 101.892C84.2588 103.683 83.527 105.312 82.3488 106.49C81.1699 107.669 79.5426 108.399 77.7508 108.399H60.6362C59.4005 108.399 58.3992 107.399 58.3992 106.162L58.3999 106.106V89.1372ZM0.826904 89.0793C0.826904 87.8442 1.82809 86.8423 3.0632 86.8423C4.29885 86.8423 5.30004 87.8442 5.30004 89.0793V103.927H24.4488C25.6842 103.927 26.6856 104.927 26.6856 106.162C26.6856 107.399 25.6842 108.399 24.4488 108.399H3.0632C1.82809 108.399 0.826904 107.399 0.826904 106.162V89.0793ZM154.43 86.8423C155.664 86.8423 156.666 87.8442 156.666 89.0793C156.666 90.3143 155.664 91.3162 154.43 91.3162H141.586C139.844 91.3162 138.268 92.0225 137.127 93.1626C135.986 94.304 135.28 95.8803 135.28 97.6215C135.28 99.3625 135.986 100.939 137.127 102.079C138.268 103.22 139.844 103.927 141.586 103.927H154.43C155.664 103.927 156.666 104.927 156.666 106.162C156.666 107.399 155.664 108.399 154.43 108.399H141.586C138.609 108.399 135.915 107.192 133.964 105.242C132.013 103.293 130.807 100.598 130.807 97.6217C130.807 94.6458 132.013 91.9503 133.964 89.9999C135.915 88.0495 138.609 86.8427 141.586 86.8427L154.43 86.8423ZM120.627 132.194C120.627 130.957 121.629 129.957 122.864 129.957C124.1 129.957 125.101 130.957 125.101 132.194V149.277C125.101 150.512 124.1 151.513 122.864 151.513C121.629 151.513 120.627 150.512 120.627 149.277V132.194ZM120.627 175.307C120.627 174.072 121.629 173.07 122.864 173.07C124.1 173.07 125.101 174.072 125.101 175.307V192.39C125.101 193.626 124.1 194.626 122.864 194.626C121.629 194.626 120.627 193.626 120.627 192.39V175.307ZM120.627 45.9662C120.627 44.7313 121.629 43.7292 122.864 43.7292C124.1 43.7292 125.101 44.7313 125.101 45.9662V63.0491C125.101 64.2856 124.1 65.286 122.864 65.286C121.629 65.286 120.627 64.2856 120.627 63.0491V45.9662ZM120.627 2.85309C120.627 1.6167 121.629 0.616272 122.864 0.616272C124.1 0.616272 125.101 1.6167 125.101 2.85309V19.9362C125.101 21.1711 124.1 22.1729 122.864 22.1729C121.629 22.1729 120.627 21.1711 120.627 19.9362V2.85309Z" fill="#fff"/>
</svg>
