<svg width="224" height="31" viewBox="0 0 224 31" fill="none" xmlns="http://www.w3.org/2000/svg">
<path d="M11.7242 14.6211V10.4771H10.4602V0.397062H3.18022V2.60506C3.18022 5.74106 2.55622 8.94106 1.69222 10.4771H0.572223V14.6211H2.02822V11.7891H10.2682V14.6211H11.7242ZM8.95622 10.4771H3.35622C4.06022 9.05306 4.65222 6.09306 4.65222 3.26106V1.70906H8.95622V10.4771ZM14.7431 11.7891L18.4551 5.05306H18.4871V11.7891H19.8471V3.53306H18.1031L14.3911 10.2691H14.3591V3.53306H12.9991V11.7891H14.7431ZM21.4257 5.91706H22.8017C22.9137 4.79706 23.9217 4.39706 24.8977 4.39706C26.0177 4.39706 26.6417 4.97306 26.6417 5.58106C26.6417 6.55706 25.8577 6.92506 24.8977 6.92506H23.9857V8.02906H25.1217C26.3857 8.02906 26.8817 8.54106 26.8817 9.37306C26.8817 10.2211 26.1457 10.9411 24.8497 10.9411C23.6337 10.9411 22.7377 10.3971 22.6577 9.21306H21.2817C21.3777 11.0051 22.7057 12.0451 24.8657 12.0451C26.6097 12.0451 28.2897 11.1331 28.2897 9.34106C28.2897 8.06106 27.4577 7.43706 26.6897 7.29306V7.26106C27.3617 7.11706 28.0177 6.46106 28.0177 5.51706C28.0177 3.98106 26.6097 3.29306 24.9137 3.29306C23.2497 3.29306 21.5537 3.88506 21.4257 5.91706ZM37.2017 10.7011C37.0577 10.7331 36.9937 10.7491 36.8657 10.7491C36.4497 10.7491 36.3057 10.5411 36.3057 9.93306C36.3057 8.70106 36.3697 7.48506 36.3697 6.25306C36.3697 5.51706 36.3857 4.66906 35.8097 4.10906C35.2657 3.59706 34.3217 3.30906 33.2177 3.30906C31.0897 3.30906 29.8097 4.34906 29.7617 6.10906H31.0897C31.2177 4.89306 31.8737 4.42906 33.1377 4.42906C34.3537 4.42906 35.0097 4.90906 35.0097 5.78906C35.0097 6.90906 34.3377 6.86106 32.3697 7.10106C30.4177 7.34106 29.4417 8.20506 29.4417 9.67706C29.4417 11.1171 30.4497 12.0131 32.0817 12.0131C33.3617 12.0131 34.2577 11.6131 35.0737 10.7011C35.0897 11.4851 35.5057 11.9171 36.2737 11.9171C36.5777 11.9171 36.9137 11.8691 37.2017 11.7571V10.7011ZM35.0097 7.50106V9.00506C35.0097 10.0611 33.7777 10.9411 32.4977 10.9411C31.4737 10.9411 30.8497 10.4131 30.8497 9.56506C30.8497 8.23706 32.1937 8.12506 33.1857 7.99706C33.7937 7.91706 34.4977 7.88506 35.0097 7.50106ZM44.3235 0.397062H43.5075C43.2515 1.16506 42.7395 1.64506 41.9075 1.64506C41.0915 1.64506 40.5315 1.16506 40.3075 0.397062H39.4915C39.6515 1.67706 40.5955 2.60506 41.9235 2.60506C43.3155 2.60506 44.1155 1.67706 44.3235 0.397062ZM40.2275 11.7891L43.9395 5.05306H43.9715V11.7891H45.3315V3.53306H43.5875L39.8755 10.2691H39.8435V3.53306H38.4835V11.7891H40.2275ZM48.7341 11.7891V8.01306H52.8621V11.7891H54.2221V3.53306H52.8621V6.81306H48.7341V3.53306H47.3741V11.7891H48.7341ZM62.4618 11.7891L66.1738 5.05306H66.2058V11.7891H67.5658V3.53306H65.8218L62.1098 10.2691H62.0778V3.53306H60.7178V11.7891H62.4618ZM2.73222 19.5331H1.45222V30.9731H2.81222V26.6371C3.51622 27.5971 4.36422 27.9971 5.58022 27.9971C7.83622 27.9971 9.27622 26.2851 9.27622 23.6131C9.27622 20.9411 7.82022 19.2771 5.51622 19.2771C4.30022 19.2771 3.37222 19.6771 2.73222 20.7011V19.5331ZM5.30822 20.4131C6.90822 20.4131 7.86822 21.6291 7.86822 23.6291C7.86822 25.6131 6.90822 26.8451 5.35622 26.8451C3.75622 26.8451 2.76422 25.6291 2.76422 23.6291C2.76422 21.6291 3.72422 20.4131 5.30822 20.4131ZM18.2486 26.7011C18.1046 26.7331 18.0406 26.7491 17.9126 26.7491C17.4966 26.7491 17.3526 26.5411 17.3526 25.9331C17.3526 24.7011 17.4166 23.4851 17.4166 22.2531C17.4166 21.5171 17.4326 20.6691 16.8566 20.1091C16.3126 19.5971 15.3686 19.3091 14.2646 19.3091C12.1366 19.3091 10.8566 20.3491 10.8086 22.1091H12.1366C12.2646 20.8931 12.9206 20.4291 14.1846 20.4291C15.4006 20.4291 16.0566 20.9091 16.0566 21.7891C16.0566 22.9091 15.3846 22.8611 13.4166 23.1011C11.4646 23.3411 10.4886 24.2051 10.4886 25.6771C10.4886 27.1171 11.4966 28.0131 13.1286 28.0131C14.4086 28.0131 15.3046 27.6131 16.1206 26.7011C16.1366 27.4851 16.5526 27.9171 17.3206 27.9171C17.6246 27.9171 17.9606 27.8691 18.2486 27.7571V26.7011ZM16.0566 23.5011V25.0051C16.0566 26.0611 14.8246 26.9411 13.5446 26.9411C12.5206 26.9411 11.8966 26.4131 11.8966 25.5651C11.8966 24.2371 13.2406 24.1251 14.2326 23.9971C14.8406 23.9171 15.5446 23.8851 16.0566 23.5011ZM19.0663 21.9171H20.4423C20.5543 20.7971 21.5623 20.3971 22.5383 20.3971C23.6583 20.3971 24.2823 20.9731 24.2823 21.5811C24.2823 22.5571 23.4983 22.9251 22.5383 22.9251H21.6263V24.0291H22.7623C24.0263 24.0291 24.5223 24.5411 24.5223 25.3731C24.5223 26.2211 23.7863 26.9411 22.4903 26.9411C21.2743 26.9411 20.3783 26.3971 20.2983 25.2131H18.9223C19.0183 27.0051 20.3463 28.0451 22.5063 28.0451C24.2503 28.0451 25.9303 27.1331 25.9303 25.3411C25.9303 24.0611 25.0983 23.4371 24.3303 23.2931V23.2611C25.0023 23.1171 25.6583 22.4611 25.6583 21.5171C25.6583 19.9811 24.2503 19.2931 22.5543 19.2931C20.8903 19.2931 19.1943 19.8851 19.0663 21.9171ZM28.8103 19.5331H27.5303V30.9731H28.8903V26.6371C29.5943 27.5971 30.4423 27.9971 31.6583 27.9971C33.9143 27.9971 35.3543 26.2851 35.3543 23.6131C35.3543 20.9411 33.8983 19.2771 31.5943 19.2771C30.3783 19.2771 29.4503 19.6771 28.8103 20.7011V19.5331ZM31.3863 20.4131C32.9863 20.4131 33.9463 21.6291 33.9463 23.6291C33.9463 25.6131 32.9863 26.8451 31.4343 26.8451C29.8343 26.8451 28.8423 25.6291 28.8423 23.6291C28.8423 21.6291 29.8023 20.4131 31.3863 20.4131ZM44.3267 26.7011C44.1827 26.7331 44.1187 26.7491 43.9907 26.7491C43.5747 26.7491 43.4307 26.5411 43.4307 25.9331C43.4307 24.7011 43.4947 23.4851 43.4947 22.2531C43.4947 21.5171 43.5107 20.6691 42.9347 20.1091C42.3907 19.5971 41.4467 19.3091 40.3427 19.3091C38.2147 19.3091 36.9347 20.3491 36.8867 22.1091H38.2147C38.3427 20.8931 38.9987 20.4291 40.2627 20.4291C41.4787 20.4291 42.1347 20.9091 42.1347 21.7891C42.1347 22.9091 41.4627 22.8611 39.4947 23.1011C37.5427 23.3411 36.5667 24.2051 36.5667 25.6771C36.5667 27.1171 37.5747 28.0131 39.2067 28.0131C40.4867 28.0131 41.3827 27.6131 42.1987 26.7011C42.2147 27.4851 42.6307 27.9171 43.3987 27.9171C43.7027 27.9171 44.0387 27.8691 44.3267 27.7571V26.7011ZM42.1347 23.5011V25.0051C42.1347 26.0611 40.9027 26.9411 39.6227 26.9411C38.5987 26.9411 37.9747 26.4131 37.9747 25.5651C37.9747 24.2371 39.3187 24.1251 40.3107 23.9971C40.9187 23.9171 41.6227 23.8851 42.1347 23.5011ZM46.3765 18.3811C45.5765 19.6131 45.3845 21.5331 45.3845 23.1171C45.3845 23.6611 45.4165 24.1731 45.4805 24.6211C45.8165 26.8931 47.3685 28.0611 49.3045 28.0611C51.7525 28.0611 53.1765 26.4771 53.1765 23.7251C53.1765 21.0371 51.7365 19.5011 49.4165 19.5011C48.0405 19.5011 46.9845 20.2851 46.5205 21.3731H46.4725C46.7125 19.4211 47.6405 18.0291 49.4485 17.9011C50.8885 17.7891 52.6005 17.8211 52.9045 16.1251H51.5445C51.3205 16.5411 50.6805 16.5571 49.6405 16.6371C48.0725 16.7491 47.1125 17.2451 46.3765 18.3811ZM46.7765 23.7731C46.7765 21.8371 47.7525 20.6371 49.2885 20.6371C50.8245 20.6371 51.7845 21.8211 51.7845 23.7571C51.7845 25.7571 50.8405 26.9091 49.3205 26.9091C47.7205 26.9091 46.7765 25.6291 46.7765 23.7731ZM58.412 19.2931C55.916 19.2931 54.364 20.9731 54.364 23.6931C54.364 26.4131 55.868 28.0451 58.396 28.0451C60.908 28.0451 62.364 26.4131 62.364 23.6131C62.364 20.8771 60.908 19.2931 58.412 19.2931ZM58.38 20.4291C59.98 20.4291 60.972 21.6771 60.972 23.6451C60.972 25.6771 60.012 26.8931 58.412 26.8931C56.748 26.8931 55.772 25.6931 55.772 23.6611C55.772 21.6931 56.78 20.4291 58.38 20.4291ZM70.0222 20.7331V19.5331H62.7422V20.7331H65.7022V27.7891H67.0622V20.7331H70.0222ZM78.5005 27.7891L74.7405 22.7811L78.0685 19.5331H76.2445L72.4685 23.4691V19.5331H71.1085V27.7891H72.4685V24.9891L73.7645 23.7251L76.7725 27.7891H78.5005ZM86.7173 26.7011C86.5733 26.7331 86.5093 26.7491 86.3813 26.7491C85.9653 26.7491 85.8213 26.5411 85.8213 25.9331C85.8213 24.7011 85.8853 23.4851 85.8853 22.2531C85.8853 21.5171 85.9013 20.6691 85.3253 20.1091C84.7813 19.5971 83.8373 19.3091 82.7333 19.3091C80.6053 19.3091 79.3253 20.3491 79.2773 22.1091H80.6053C80.7333 20.8931 81.3893 20.4291 82.6533 20.4291C83.8693 20.4291 84.5253 20.9091 84.5253 21.7891C84.5253 22.9091 83.8533 22.8611 81.8853 23.1011C79.9333 23.3411 78.9573 24.2051 78.9573 25.6771C78.9573 27.1171 79.9653 28.0131 81.5973 28.0131C82.8773 28.0131 83.7733 27.6131 84.5893 26.7011C84.6053 27.4851 85.0213 27.9171 85.7893 27.9171C86.0933 27.9171 86.4293 27.8691 86.7173 27.7571V26.7011ZM84.5253 23.5011V25.0051C84.5253 26.0611 83.2933 26.9411 82.0133 26.9411C80.9893 26.9411 80.3653 26.4131 80.3653 25.5651C80.3653 24.2371 81.7093 24.1251 82.7013 23.9971C83.3093 23.9171 84.0133 23.8851 84.5253 23.5011Z" fill="#999999"/>
<g clip-path="url(#clip0)">
<path d="M99.3298 17.308C99.7737 18.0047 100.44 18.6144 101.372 19.0498C102.26 19.4853 103.237 19.703 104.302 19.703C104.835 19.703 105.368 19.6595 105.856 19.5288C106.345 19.3982 106.744 19.224 107.144 19.0063C107.499 18.7886 107.81 18.5273 107.987 18.2225C108.209 17.9176 108.298 17.6128 108.298 17.2644C108.298 16.7419 108.032 16.2629 107.455 15.9145C106.877 15.5662 106.167 15.2178 105.279 14.913C104.391 14.6082 103.459 14.3033 102.482 13.9985C101.461 13.6937 100.529 13.3018 99.6849 12.8663C98.797 12.3873 98.0866 11.8648 97.5094 11.168C96.9322 10.5148 96.6659 9.64392 96.6659 8.64237C96.6659 7.81499 96.8879 7.03117 97.2874 6.29089C97.687 5.59415 98.2642 4.94097 98.9746 4.41842C99.5961 3.89586 100.44 3.50395 101.416 3.19913C102.393 2.89431 103.459 2.76367 104.613 2.76367C106.478 2.76367 108.121 3.15558 109.586 3.89586C111.006 4.63614 111.983 5.68125 112.516 6.94408L109.497 8.68591C109.142 7.98918 108.565 7.46663 107.721 7.07471C106.922 6.6828 105.945 6.50862 104.88 6.50862C103.77 6.50862 102.882 6.6828 102.171 7.07471C101.461 7.46663 101.106 7.94563 101.061 8.51173C101.061 8.94719 101.372 9.29555 101.949 9.60037C102.526 9.9052 103.281 10.1665 104.125 10.4713C105.013 10.7326 105.945 11.0374 106.966 11.3858C107.987 11.6906 108.92 12.126 109.808 12.605C110.696 13.084 111.406 13.6937 111.983 14.434C112.56 15.1742 112.871 16.0887 112.871 17.1774C112.871 18.0483 112.649 18.9192 112.25 19.703C111.806 20.4868 111.228 21.14 110.474 21.7497C109.719 22.3158 108.831 22.7512 107.81 23.0996C106.789 23.4044 105.679 23.5786 104.436 23.5786C102.571 23.5786 100.884 23.1867 99.4185 22.4464C97.9534 21.6626 96.8435 20.6175 96.0887 19.3111L99.3298 17.308Z" fill="white"/>
<path d="M128.544 23.4478C127.256 23.4478 126.057 23.2301 124.903 22.7511C123.793 22.272 122.816 21.5753 121.973 20.6609V30.7635H117.444V3.2425H122.017V5.68107C122.905 4.72306 123.882 4.02632 125.036 3.54732C126.146 3.06832 127.345 2.85059 128.588 2.85059C129.965 2.85059 131.252 3.11186 132.451 3.67796C133.65 4.24405 134.715 4.98433 135.647 5.8988C136.58 6.85681 137.29 7.94545 137.823 9.20828C138.356 10.4711 138.622 11.821 138.622 13.2581C138.622 14.6515 138.356 15.9579 137.823 17.2207C137.29 18.44 136.58 19.5287 135.692 20.4867C134.804 21.4011 133.738 22.1414 132.495 22.664C131.252 23.1865 129.965 23.4478 128.544 23.4478ZM122.017 13.1274C122.017 13.9983 122.195 14.7822 122.506 15.566C122.816 16.3063 123.26 16.9595 123.793 17.5255C124.326 18.0916 124.992 18.5271 125.702 18.8319C126.413 19.1367 127.212 19.3109 128.055 19.3109C128.899 19.3109 129.698 19.1367 130.453 18.8319C131.163 18.5271 131.829 18.0916 132.362 17.5255C132.895 16.9595 133.339 16.3063 133.65 15.5224C133.96 14.7386 134.138 13.9548 134.138 13.0839C134.138 12.213 134.005 11.4291 133.694 10.6453C133.383 9.90502 132.984 9.25183 132.451 8.68573C131.918 8.11964 131.296 7.72772 130.542 7.4229C129.831 7.11808 129.032 6.9439 128.144 6.9439C127.301 6.9439 126.501 7.11808 125.747 7.4229C124.992 7.72772 124.37 8.16318 123.838 8.72928C123.305 9.29538 122.861 9.94856 122.55 10.6888C122.15 11.4291 122.017 12.2565 122.017 13.1274Z" fill="white"/>
<path d="M151.586 2.85059C152.874 2.85059 154.073 3.06832 155.227 3.54732C156.337 4.02632 157.314 4.72306 158.157 5.63752V3.19895H162.73V23.0994H158.157V20.6173C157.269 21.5753 156.293 22.272 155.138 22.7511C154.028 23.2301 152.83 23.4913 151.586 23.4913C150.254 23.4913 148.967 23.2301 147.724 22.664C146.481 22.0979 145.415 21.3576 144.527 20.3996C143.595 19.4416 142.884 18.3529 142.352 17.0901C141.819 15.8273 141.552 14.4773 141.552 13.0403C141.552 11.6469 141.819 10.3405 142.352 9.07765C142.884 7.85836 143.595 6.76971 144.527 5.81171C145.415 4.89724 146.481 4.15696 147.724 3.63441C148.923 3.11186 150.21 2.85059 151.586 2.85059ZM158.157 13.171C158.157 12.3 157.98 11.5162 157.669 10.7324C157.358 9.99211 156.914 9.33892 156.381 8.77283C155.849 8.20673 155.183 7.77127 154.472 7.46645C153.762 7.16163 152.963 6.98744 152.119 6.98744C151.276 6.98744 150.476 7.16163 149.722 7.46645C149.011 7.77127 148.345 8.20673 147.813 8.77283C147.28 9.33892 146.836 9.99211 146.525 10.7324C146.214 11.4727 146.037 12.3 146.037 13.2145C146.037 14.0854 146.17 14.9128 146.481 15.6531C146.791 16.3934 147.191 17.0465 147.724 17.6126C148.257 18.1787 148.878 18.5706 149.633 18.8755C150.343 19.1803 151.142 19.3545 152.03 19.3545C152.918 19.3545 153.673 19.1803 154.428 18.8755C155.183 18.5706 155.804 18.1352 156.337 17.5691C156.87 17.003 157.314 16.3498 157.625 15.6095C157.98 14.8257 158.157 14.0419 158.157 13.171Z" fill="white"/>
<path d="M182.31 9.51368C181.733 8.72986 180.978 8.12021 180.09 7.64121C179.202 7.1622 178.225 6.94448 177.293 6.94448C176.494 6.94448 175.739 7.11866 174.984 7.42348C174.274 7.77185 173.608 8.20731 173.075 8.7734C172.542 9.3395 172.098 9.99269 171.788 10.7765C171.477 11.5168 171.299 12.3442 171.299 13.1715C171.299 13.9989 171.477 14.8263 171.788 15.5666C172.098 16.3068 172.542 16.96 173.075 17.5261C173.608 18.0922 174.274 18.5277 174.984 18.8325C175.739 19.1373 176.538 19.3115 177.382 19.3115C178.359 19.3115 179.247 19.0938 180.09 18.7019C180.934 18.2664 181.688 17.6568 182.266 16.8294L185.24 19.7034C183.065 22.1855 180.445 23.4484 177.293 23.4484C175.828 23.4484 174.407 23.1871 173.12 22.6645C171.832 22.142 170.722 21.4017 169.745 20.4872C168.769 19.5728 168.014 18.4841 167.481 17.2213C166.948 15.9585 166.682 14.6521 166.682 13.2151C166.682 11.7781 166.948 10.4281 167.481 9.16531C168.014 7.90248 168.769 6.81384 169.701 5.85583C170.633 4.89782 171.788 4.15754 173.075 3.63499C174.363 3.06889 175.739 2.80762 177.204 2.80762C178.758 2.80762 180.223 3.11244 181.6 3.76563C182.976 4.41881 184.175 5.33328 185.24 6.55256L182.31 9.51368Z" fill="white"/>
<path d="M206.241 19.8335C205.397 20.9221 204.287 21.793 202.822 22.4462C201.401 23.0994 199.847 23.4042 198.249 23.4042C196.828 23.4042 195.452 23.143 194.209 22.6204C192.921 22.0979 191.811 21.3576 190.834 20.3996C189.858 19.4416 189.103 18.3529 188.57 17.0901C188.037 15.8273 187.771 14.5209 187.771 13.0839C187.771 11.6469 188.037 10.3405 188.615 9.07765C189.192 7.85836 189.946 6.76971 190.923 5.81171C191.9 4.89724 193.054 4.15696 194.342 3.63441C195.629 3.11186 197.05 2.85059 198.515 2.85059C200.114 2.85059 201.623 3.15541 202.955 3.8086C204.287 4.41824 205.441 5.28916 206.374 6.3778C207.306 7.46645 208.017 8.72928 208.461 10.2098C208.949 11.6904 209.082 13.3016 208.949 14.9999H192.788C192.966 15.6531 193.188 16.2192 193.587 16.7417C193.942 17.2643 194.386 17.7433 194.919 18.1352C195.452 18.5271 196.029 18.8319 196.695 19.0497C197.361 19.2674 198.027 19.3545 198.737 19.3545C199.714 19.3545 200.646 19.1367 201.446 18.7448C202.245 18.3529 202.955 17.7433 203.577 17.003L206.241 19.8335ZM204.065 11.342C203.71 10.0357 203 8.99055 201.978 8.16318C200.957 7.33581 199.758 6.9439 198.382 6.9439C197.05 6.9439 195.896 7.33581 194.875 8.11964C193.853 8.90346 193.143 9.99211 192.699 11.342H204.065Z" fill="white"/>
<path d="M219.915 23.4482C222.196 23.4482 224.044 21.635 224.044 19.3984C224.044 17.1618 222.196 15.3486 219.915 15.3486C217.635 15.3486 215.786 17.1618 215.786 19.3984C215.786 21.635 217.635 23.4482 219.915 23.4482Z" fill="#FF0000"/>
</g>
<defs>
<clipPath id="clip0">
<rect width="128" height="28" fill="white" transform="translate(95.9999 2.76367)"/>
</clipPath>
</defs>
</svg>
