<svg width="17" height="18" viewBox="0 0 17 18" fill="none" xmlns="http://www.w3.org/2000/svg">
<path d="M10.4956 8.99872L16.5814 2.56902C16.8479 2.2868 16.9976 1.90402 16.9976 1.5049C16.9976 1.10577 16.8479 0.722997 16.5814 0.440774C16.3148 0.158551 15.9534 0 15.5765 0C15.1996 0 14.8381 0.158551 14.5716 0.440774L8.5 6.88546L2.42837 0.440774C2.16186 0.158551 1.8004 -2.9737e-09 1.42351 0C1.04661 2.9737e-09 0.685149 0.158551 0.418643 0.440774C0.152137 0.722997 0.00241535 1.10577 0.00241535 1.5049C0.00241535 1.90402 0.152137 2.2868 0.418643 2.56902L6.50443 8.99872L0.418643 15.4284C0.285989 15.5678 0.180699 15.7335 0.108847 15.9162C0.0369938 16.0988 0 16.2947 0 16.4925C0 16.6904 0.0369938 16.8863 0.108847 17.0689C0.180699 17.2516 0.285989 17.4173 0.418643 17.5567C0.550213 17.6971 0.706747 17.8086 0.879214 17.8847C1.05168 17.9608 1.23667 18 1.42351 18C1.61034 18 1.79533 17.9608 1.9678 17.8847C2.14026 17.8086 2.2968 17.6971 2.42837 17.5567L8.5 11.112L14.5716 17.5567C14.7032 17.6971 14.8597 17.8086 15.0322 17.8847C15.2047 17.9608 15.3897 18 15.5765 18C15.7633 18 15.9483 17.9608 16.1208 17.8847C16.2933 17.8086 16.4498 17.6971 16.5814 17.5567C16.714 17.4173 16.8193 17.2516 16.8912 17.0689C16.963 16.8863 17 16.6904 17 16.4925C17 16.2947 16.963 16.0988 16.8912 15.9162C16.8193 15.7335 16.714 15.5678 16.5814 15.4284L10.4956 8.99872Z" fill="white"/>
</svg>
