<svg width="27" height="26" viewBox="0 0 27 26" fill="none" xmlns="http://www.w3.org/2000/svg">
<path d="M16.0543 12.9982L25.3633 3.71081C25.771 3.30315 26 2.75025 26 2.17374C26 1.59723 25.771 1.04433 25.3633 0.636674C24.9557 0.229019 24.4028 0 23.8263 0C23.2498 0 22.6969 0.229019 22.2892 0.636674L13.0018 9.94567L3.7145 0.636674C3.30685 0.229019 2.75395 -4.29534e-09 2.17744 0C1.60092 4.29535e-09 1.04802 0.229019 0.640369 0.636674C0.232713 1.04433 0.00369459 1.59723 0.00369459 2.17374C0.00369458 2.75025 0.232713 3.30315 0.640369 3.71081L9.94936 12.9982L0.640369 22.2855C0.437458 22.4868 0.276403 22.7262 0.166495 22.99C0.0565867 23.2538 0 23.5368 0 23.8226C0 24.1084 0.0565867 24.3913 0.166495 24.6551C0.276403 24.9189 0.437458 25.1584 0.640369 25.3596C0.841623 25.5625 1.08106 25.7236 1.34487 25.8335C1.60868 25.9434 1.89165 26 2.17744 26C2.46323 26 2.74619 25.9434 3.01 25.8335C3.27381 25.7236 3.51325 25.5625 3.7145 25.3596L13.0018 16.0506L22.2892 25.3596C22.4905 25.5625 22.7299 25.7236 22.9937 25.8335C23.2575 25.9434 23.5405 26 23.8263 26C24.1121 26 24.395 25.9434 24.6588 25.8335C24.9226 25.7236 25.1621 25.5625 25.3633 25.3596C25.5662 25.1584 25.7273 24.9189 25.8372 24.6551C25.9471 24.3913 26.0037 24.1084 26.0037 23.8226C26.0037 23.5368 25.9471 23.2538 25.8372 22.99C25.7273 22.7262 25.5662 22.4868 25.3633 22.2855L16.0543 12.9982Z" fill="#333333"/>
</svg>
