<svg width="1181" height="202" viewBox="0 0 1181 202" fill="none" xmlns="http://www.w3.org/2000/svg">
<path d="M252.539 21.3648C252.539 9.84901 261.938 0.50733 273.537 0.50733C285.128 0.50733 294.533 9.8473 294.533 21.3648V101.003C294.533 117.235 301.156 131.934 311.865 142.565C322.571 153.203 337.368 159.781 353.709 159.781H394.089C410.433 159.781 425.23 153.203 435.936 142.565C446.644 131.933 453.268 117.235 453.268 101.003V21.3648C453.268 9.84901 462.669 0.50733 474.263 0.50733C485.858 0.50733 495.261 9.8473 495.261 21.3648V101.003C495.261 128.752 483.933 153.876 465.629 172.057C447.317 190.246 422.025 201.495 394.089 201.495H353.709C325.776 201.495 300.482 190.246 282.174 172.057C263.865 153.876 252.539 128.752 252.539 101.003V21.3648ZM1124.68 21.3648C1124.68 9.84901 1134.07 0.510754 1145.67 0.510754C1157.26 0.510754 1166.67 9.8473 1166.67 21.3648V180.641C1166.67 192.155 1157.27 201.496 1145.67 201.496C1134.08 201.496 1124.68 192.156 1124.68 180.641V21.3648ZM861.366 121.857C849.774 121.857 840.368 112.517 840.368 101.001C840.368 89.4852 849.773 80.1436 861.366 80.1436H997.57C1002.79 80.1436 1007.56 78.0054 1011.03 74.556C1014.5 71.1117 1016.66 66.3733 1016.66 61.1795C1016.66 55.9891 1014.5 51.2506 1011.03 47.8029C1007.56 44.3552 1002.79 42.2153 997.57 42.2153H836.924C825.333 42.2153 815.927 32.8788 815.927 21.3613C815.927 9.84558 825.331 0.503906 836.924 0.503906H997.57C1014.38 0.503906 1029.66 7.324 1040.72 18.3125C1051.78 29.2941 1058.65 44.4733 1058.65 61.1777C1058.65 77.8839 1051.78 93.0613 1040.72 104.045C1029.66 115.031 1014.38 121.853 997.57 121.853H962.264C983.806 140.33 1007.97 159.78 1051.77 159.78C1063.37 159.78 1072.77 169.12 1072.77 180.635C1072.77 192.151 1063.37 201.493 1051.77 201.493C990.921 201.493 960.385 175.236 932.54 151.296C914.696 135.956 898.298 121.855 874.743 121.855H861.364L861.366 121.857ZM624.574 121.857C612.977 121.857 603.578 112.517 603.578 101.001C603.578 89.4852 612.976 80.1436 624.574 80.1436H722.227C727.453 80.1436 732.221 78.0054 735.692 74.556C739.161 71.1117 741.312 66.3733 741.312 61.1795C741.312 55.9891 739.161 51.2506 735.692 47.8029C732.221 44.3552 727.453 42.2153 722.227 42.2153H582.582V159.78H722.227C727.453 159.78 732.221 157.642 735.692 154.192C739.161 150.748 741.312 146.009 741.312 140.816C741.312 135.964 739.471 131.525 736.452 128.156L735.692 127.439C732.221 123.991 727.453 121.852 722.227 121.852H624.574V121.857ZM540.591 21.9023L540.584 21.3648C540.584 9.84901 549.984 0.50733 561.581 0.50733H722.227C739.044 0.50733 754.319 7.32742 765.383 18.3159C776.435 29.2976 783.306 44.4767 783.306 61.1812C783.306 76.4117 777.595 90.3703 768.207 101.042C777.595 111.709 783.306 125.64 783.306 140.819C783.306 157.525 776.435 172.703 765.383 183.686C754.319 194.675 739.044 201.495 722.227 201.495H561.581C549.985 201.495 540.584 192.155 540.584 180.637L540.591 180.1V21.9006V21.9023ZM0.193542 21.3648C0.193542 9.84901 9.59469 0.50733 21.1914 0.50733C32.7847 0.50733 42.1859 9.8473 42.1859 21.3648V159.781H221.919C233.514 159.781 242.915 169.121 242.915 180.637C242.915 192.153 233.516 201.495 221.919 201.495H21.1914C9.59641 201.495 0.193542 192.155 0.193542 180.637V21.3648ZM1441.94 0.50733C1453.54 0.50733 1462.94 9.8473 1462.94 21.3648C1462.94 32.8805 1453.54 42.2188 1441.94 42.2188H1321.39C1305.05 42.2188 1290.25 48.7975 1279.54 59.4368C1268.84 70.0726 1262.21 84.7673 1262.21 101.003C1262.21 117.235 1268.84 131.934 1279.54 142.565C1290.25 153.203 1305.05 159.781 1321.39 159.781H1441.94C1453.54 159.781 1462.94 169.121 1462.94 180.637C1462.94 192.153 1453.54 201.495 1441.94 201.495H1321.39C1293.45 201.495 1268.16 190.246 1249.85 172.057C1231.55 153.876 1220.22 128.752 1220.22 101.003C1220.22 73.2533 1231.54 48.1299 1249.85 29.9447C1268.16 11.7577 1293.45 0.50733 1321.39 0.50733H1441.94Z" fill="white" fill-opacity="0.18"/>
</svg>
